#!OML:ASF F:\VICON\USERDATA\INSTALL\rory7\rory7.ASF
:FULLY-SPECIFIED
:DEGREES
101
root 0.281275 18.8626 2.41436 -2.99637 -0.455995 2.20697
lowerback 5.38635 1.52599 -2.4541
upperback 1.1253 1.86656 -1.29429
thorax -1.89548 0.941252 -0.0840347
lowerneck -10.5473 -3.23802 -6.3698
upperneck 28.2127 -5.90169 9.31246
head 11.3405 -2.27031 3.77222
rclavicle 2.81529e-014 -8.94531e-015
rhumerus -27.0764 37.1196 -94.8763
rradius 89.7055
rwrist -17.2726
rhand -41.0556 10.2391
rfingers 7.12502
rthumb -13.9852 -19.2705
lclavicle 2.81529e-014 -8.94531e-015
lhumerus -27.4249 -40.2917 99.8585
lradius 98.086
lwrist 28.2814
lhand -39.0885 38.7325
lfingers 7.12502
lthumb -12.089 68.3633
rfemur 6.37939 18.0839 17.2738
rtibia 10.4967
rfoot -13.5278 -26.0477
rtoes -3.95029
lfemur 5.8211 -13.6183 -19.6036
ltibia 6.65338
lfoot -8.58664 18.785
ltoes -6.83167
102
root 0.28368 18.8613 2.4147 -3.06872 -0.528096 2.1824
lowerback 5.45565 1.54857 -2.43344
upperback 1.13107 1.89553 -1.28725
thorax -1.92831 0.955792 -0.0923394
lowerneck -10.4951 -3.24122 -6.34321
upperneck 28.2183 -5.93331 9.37316
head 11.3363 -2.27624 3.78683
rclavicle -1.51573e-015 -9.14409e-015
rhumerus -26.9645 36.9714 -94.8698
rradius 89.5512
rwrist -16.7819
rhand -40.7115 9.87294
rfingers 7.12502
rthumb -13.6535 -19.6592
lclavicle -1.51573e-015 -9.14409e-015
lhumerus -27.4484 -40.2871 99.9425
lradius 98.005
lwrist 27.6213
lhand -39.4615 39.0675
lfingers 7.12502
lthumb -12.4486 68.6767
rfemur 6.49857 18.1298 17.3159
rtibia 10.3927
rfoot -13.4511 -26.0289
rtoes -3.90784
lfemur 5.79842 -13.5475 -19.5999
ltibia 6.87103
lfoot -8.69186 18.7664
ltoes -6.75853
103
root 0.286158 18.8596 2.41617 -3.15708 -0.637401 2.11521
lowerback 5.4986 1.57251 -2.38037
upperback 1.16128 1.9303 -1.25501
thorax -1.92117 0.972675 -0.0920983
lowerneck -10.488 -3.23911 -6.31732
upperneck 28.249 -5.94257 9.38393
head 11.3472 -2.27635 3.78614
rclavicle -4.15584e-015 1.63003e-014
rhumerus -26.8439 36.9531 -94.9075
rradius 89.4083
rwrist -16.3515
rhand -40.7147 9.25582
rfingers 7.12502
rthumb -13.6566 -20.2761
lclavicle -4.15584e-015 1.63003e-014
lhumerus -27.4601 -40.2227 100.033
lradius 97.9753
lwrist 26.929
lhand -39.8184 39.4976
lfingers 7.12502
lthumb -12.7927 69.0856
rfemur 6.59167 18.1667 17.3999
rtibia 10.3386
rfoot -13.3643 -25.9509
rtoes -4.06803
lfemur 5.84826 -13.4419 -19.558
ltibia 7.01201
lfoot -8.72938 18.7495
ltoes -6.94354
104
root 0.287832 18.8599 2.41435 -3.18607 -0.697352 2.09832
lowerback 5.52968 1.57712 -2.41888
upperback 1.15886 1.93401 -1.2087
thorax -1.94393 0.974941 -0.0242755
lowerneck -10.4765 -3.24021 -6.31051
upperneck 28.2932 -5.93981 9.34774
head 11.3602 -2.27841 3.77313
rclavicle 1.96673e-014 -1.59028e-014
rhumerus -26.7651 36.9892 -94.9027
rradius 89.3189
rwrist -15.5475
rhand -40.8112 8.36157
rfingers 7.12502
rthumb -13.7497 -21.1641
lclavicle 1.96673e-014 -1.59028e-014
lhumerus -27.5331 -40.0652 100.19
lradius 98.0017
lwrist 26.2287
lhand -40.2382 40.2754
lfingers 7.12502
lthumb -13.1974 69.8377
rfemur 6.61797 18.1767 17.4119
rtibia 10.2845
rfoot -13.2759 -25.8827
rtoes -4.29071
lfemur 5.81618 -13.3835 -19.5415
ltibia 7.13407
lfoot -8.79484 18.7331
ltoes -6.98974
105
root 0.28958 18.8603 2.41031 -3.17018 -0.708515 2.09013
lowerback 5.55577 1.56267 -2.4734
upperback 1.13506 1.91126 -1.15443
thorax -1.98619 0.964417 0.0623673
lowerneck -10.4317 -3.23687 -6.34545
upperneck 28.3072 -5.92426 9.32581
head 11.3552 -2.27873 3.77387
rclavicle 7.88927e-015 -1.09332e-014
rhumerus -26.7539 37.049 -94.8833
rradius 89.2891
rwrist -14.8723
rhand -40.8128 7.54852
rfingers 7.12502
rthumb -13.7512 -21.9771
lclavicle 7.88927e-015 -1.09332e-014
lhumerus -27.6843 -39.83 100.381
lradius 98.0229
lwrist 25.3959
lhand -40.6186 40.8883
lfingers 7.12502
lthumb -13.564 70.4265
rfemur 6.60646 18.1752 17.4053
rtibia 10.2545
rfoot -13.2652 -25.8791
rtoes -4.16794
lfemur 5.74643 -13.3737 -19.5164
ltibia 7.19323
lfoot -8.85272 18.709
ltoes -6.80003
